<?xml version="1.0" encoding="UTF-8"?>
<!DOCTYPE svg PUBLIC "-//W3C//DTD SVG 1.1//EN" "http://www.w3.org/Graphics/SVG/1.1/DTD/svg11.dtd">
<svg xmlns="http://www.w3.org/2000/svg" version="1.1" width="788px" height="754px" style="shape-rendering:geometricPrecision; text-rendering:geometricPrecision; image-rendering:optimizeQuality; fill-rule:evenodd; clip-rule:evenodd" xmlns:xlink="http://www.w3.org/1999/xlink">
<g><path style="opacity:0.225" fill="#d7d7d7" d="M 432.5,15.5 C 431.167,15.5 429.833,15.5 428.5,15.5C 412.014,14.9083 395.681,14.2417 379.5,13.5C 392.327,12.3398 405.327,12.1731 418.5,13C 423.434,13.1161 428.1,13.9494 432.5,15.5 Z"/></g>
<g><path style="opacity:0.069" fill="#f7f7f7" d="M 377.5,13.5 C 376.5,14.1667 375.5,14.8333 374.5,15.5C 374.167,15.5 373.833,15.5 373.5,15.5C 371.167,15.5 368.833,15.5 366.5,15.5C 366.918,14.7784 367.584,14.2784 368.5,14C 371.482,13.502 374.482,13.3354 377.5,13.5 Z"/></g>
<g><path style="opacity:0.537" fill="#525252" d="M 377.5,13.5 C 378.167,13.5 378.833,13.5 379.5,13.5C 395.681,14.2417 412.014,14.9083 428.5,15.5C 428.5,15.8333 428.5,16.1667 428.5,16.5C 410.517,15.6163 392.517,15.283 374.5,15.5C 375.5,14.8333 376.5,14.1667 377.5,13.5 Z"/></g>
<g><path style="opacity:0.992" fill="#010101" d="M 373.5,15.5 C 373.833,15.5 374.167,15.5 374.5,15.5C 392.517,15.283 410.517,15.6163 428.5,16.5C 535.788,26.884 622.621,74.2173 689,158.5C 697.606,170.731 705.939,183.065 714,195.5C 722.522,212.208 730.689,228.874 738.5,245.5C 748.663,274.15 755.663,303.483 759.5,333.5C 760.221,348.606 761.554,363.606 763.5,378.5C 763.5,379.167 763.167,379.5 762.5,379.5C 520.5,378.167 278.5,378.167 36.5,379.5C 35.8333,379.5 35.5,379.167 35.5,378.5C 35.5,378.167 35.5,377.833 35.5,377.5C 36.4938,368.014 36.8271,358.348 36.5,348.5C 36.5916,341.436 37.2583,334.436 38.5,327.5C 39.4657,321.888 40.1324,316.221 40.5,310.5C 45.7507,290.474 51.584,270.474 58,250.5C 65.3855,233.411 73.3855,216.411 82,199.5C 90.6532,186.203 99.3198,172.87 108,159.5C 116.652,149.678 125.152,139.678 133.5,129.5C 138.833,124.833 143.833,119.833 148.5,114.5C 154.952,108.769 161.618,103.269 168.5,98C 170.141,96.871 171.141,95.371 171.5,93.5C 187.002,82.8447 202.669,72.3447 218.5,62C 233.029,54.7356 247.362,47.5689 261.5,40.5C 292.632,29.2731 324.632,21.6064 357.5,17.5C 363.069,17.624 368.402,16.9573 373.5,15.5 Z M 382.5,89.5 C 410.82,88.2262 438.82,90.5595 466.5,96.5C 466.833,96.5 467.167,96.5 467.5,96.5C 477.924,100.283 488.591,103.783 499.5,107C 510.344,111.261 521.011,115.761 531.5,120.5C 532.287,122.104 533.62,122.771 535.5,122.5C 564.978,139.448 591.478,160.448 615,185.5C 622.697,195.355 630.531,205.022 638.5,214.5C 644.333,225.505 650.666,236.172 657.5,246.5C 666.816,266.781 674.15,287.781 679.5,309.5C 680.171,310.847 680.171,312.014 679.5,313C 492.167,313.5 304.834,313.667 117.5,313.5C 118.059,308.262 119.392,303.262 121.5,298.5C 121.5,298.167 121.5,297.833 121.5,297.5C 122.167,295.5 122.833,293.5 123.5,291.5C 123.5,291.167 123.5,290.833 123.5,290.5C 157.511,193.155 223.845,129.489 322.5,99.5C 323.167,99.5 323.833,99.5 324.5,99.5C 326.987,98.6772 329.321,97.6772 331.5,96.5C 348.364,93.1894 365.364,90.8561 382.5,89.5 Z"/></g>
<g><path style="opacity:0.541" fill="#454545" d="M 364.5,15.5 C 365.167,15.5 365.833,15.5 366.5,15.5C 368.833,15.5 371.167,15.5 373.5,15.5C 368.402,16.9573 363.069,17.624 357.5,17.5C 359.833,16.8333 362.167,16.1667 364.5,15.5 Z"/></g>
<g><path style="opacity:0.376" fill="#a1a1a1" d="M 364.5,15.5 C 362.167,16.1667 359.833,16.8333 357.5,17.5C 324.632,21.6064 292.632,29.2731 261.5,40.5C 263.7,38.3596 266.367,36.8596 269.5,36C 300.272,25.0123 331.938,18.179 364.5,15.5 Z"/></g>
<g><path style="opacity:0.097" fill="#a6a6a6" d="M 261.5,40.5 C 247.362,47.5689 233.029,54.7356 218.5,62C 202.669,72.3447 187.002,82.8447 171.5,93.5C 189.879,77.7946 209.879,64.2946 231.5,53C 241.417,48.5385 251.417,44.3718 261.5,40.5 Z"/></g>
<g><path style="opacity:0.345" fill="#8e8e8e" d="M 415.5,88.5 C 404.321,88.1721 393.321,88.5054 382.5,89.5C 365.364,90.8561 348.364,93.1894 331.5,96.5C 328.729,96.4207 326.063,96.9207 323.5,98C 324.056,98.3826 324.389,98.8826 324.5,99.5C 323.833,99.5 323.167,99.5 322.5,99.5C 320.691,98.7093 318.691,98.7093 316.5,99.5C 342.009,91.084 368.342,87.084 395.5,87.5C 402.342,87.5004 409.009,87.8337 415.5,88.5 Z"/></g>
<g><path style="opacity:0.355" fill="#bababa" d="M 382.5,89.5 C 393.321,88.5054 404.321,88.1721 415.5,88.5C 433.076,88.4839 450.076,91.1505 466.5,96.5C 438.82,90.5595 410.82,88.2262 382.5,89.5 Z"/></g>
<g><path style="opacity:0.173" fill="#dedede" d="M 331.5,96.5 C 329.321,97.6772 326.987,98.6772 324.5,99.5C 324.389,98.8826 324.056,98.3826 323.5,98C 326.063,96.9207 328.729,96.4207 331.5,96.5 Z"/></g>
<g><path style="opacity:0.286" fill="#aaaaaa" d="M 171.5,93.5 C 171.141,95.371 170.141,96.871 168.5,98C 161.618,103.269 154.952,108.769 148.5,114.5C 148.167,114.5 147.833,114.5 147.5,114.5C 149.557,110.933 152.223,107.766 155.5,105C 160.724,100.931 166.057,97.0981 171.5,93.5 Z"/></g>
<g><path style="opacity:0.267" fill="#a4a4a4" d="M 322.5,99.5 C 223.845,129.489 157.511,193.155 123.5,290.5C 123.167,290.5 122.833,290.5 122.5,290.5C 125.19,279.116 129.023,268.116 134,257.5C 171.746,178.259 232.58,125.593 316.5,99.5C 318.691,98.7093 320.691,98.7093 322.5,99.5 Z"/></g>
<g><path style="opacity:0.055" fill="#afafaf" d="M 467.5,96.5 C 487.085,100.75 506.085,106.917 524.5,115C 527.02,116.697 529.353,118.53 531.5,120.5C 521.011,115.761 510.344,111.261 499.5,107C 488.591,103.783 477.924,100.283 467.5,96.5 Z"/></g>
<g><path style="opacity:0.31" fill="#4f4f4f" d="M 147.5,114.5 C 147.833,114.5 148.167,114.5 148.5,114.5C 143.833,119.833 138.833,124.833 133.5,129.5C 133.5,128.833 133.5,128.167 133.5,127.5C 138.141,123.195 142.807,118.861 147.5,114.5 Z"/></g>
<g><path style="opacity:0.065" fill="#f0f0f0" d="M 531.5,120.5 C 533.153,120.66 534.486,121.326 535.5,122.5C 533.62,122.771 532.287,122.104 531.5,120.5 Z"/></g>
<g><path style="opacity:0.012" fill="#a6a6a6" d="M 428.5,16.5 C 428.5,16.1667 428.5,15.8333 428.5,15.5C 429.833,15.5 431.167,15.5 432.5,15.5C 482.627,18.7089 529.627,32.5422 573.5,57C 634.874,91.0407 683.041,138.541 718,199.5C 726.213,214.255 733.046,229.589 738.5,245.5C 730.689,228.874 722.522,212.208 714,195.5C 705.939,183.065 697.606,170.731 689,158.5C 622.621,74.2173 535.788,26.884 428.5,16.5 Z"/></g>
<g><path style="opacity:0.112" fill="#a2a2a2" d="M 535.5,122.5 C 546.335,127.256 556.668,133.089 566.5,140C 593.293,159.126 616.46,181.959 636,208.5C 637.559,210.217 638.392,212.217 638.5,214.5C 630.531,205.022 622.697,195.355 615,185.5C 591.478,160.448 564.978,139.448 535.5,122.5 Z"/></g>
<g><path style="opacity:0.082" fill="#a6a6a6" d="M 133.5,127.5 C 133.5,128.167 133.5,128.833 133.5,129.5C 125.152,139.678 116.652,149.678 108,159.5C 99.3198,172.87 90.6532,186.203 82,199.5C 73.3855,216.411 65.3855,233.411 58,250.5C 51.584,270.474 45.7507,290.474 40.5,310.5C 43.9629,288.982 49.4629,267.982 57,247.5C 72.4223,207.292 94.4223,171.292 123,139.5C 125.593,134.738 129.093,130.738 133.5,127.5 Z"/></g>
<g><path style="opacity:0.322" fill="#aaaaaa" d="M 638.5,214.5 C 640.074,214.937 641.241,215.937 642,217.5C 648.252,226.676 653.419,236.343 657.5,246.5C 650.666,236.172 644.333,225.505 638.5,214.5 Z"/></g>
<g><path style="opacity:0.11" fill="#ababab" d="M 657.5,246.5 C 662.162,253.255 665.995,260.589 669,268.5C 674.078,281.567 678.245,294.9 681.5,308.5C 680.833,308.833 680.167,309.167 679.5,309.5C 674.15,287.781 666.816,266.781 657.5,246.5 Z"/></g>
<g><path style="opacity:0.498" fill="#595959" d="M 122.5,290.5 C 122.833,290.5 123.167,290.5 123.5,290.5C 123.5,290.833 123.5,291.167 123.5,291.5C 122.503,291.47 121.836,291.97 121.5,293C 120.392,294.677 120.392,296.177 121.5,297.5C 121.5,297.833 121.5,298.167 121.5,298.5C 120.391,298.557 119.391,298.89 118.5,299.5C 119.084,296.997 119.751,294.497 120.5,292C 120.836,290.97 121.503,290.47 122.5,290.5 Z"/></g>
<g><path style="opacity:0.125" fill="#f2f2f2" d="M 123.5,291.5 C 122.833,293.5 122.167,295.5 121.5,297.5C 120.392,296.177 120.392,294.677 121.5,293C 121.836,291.97 122.503,291.47 123.5,291.5 Z"/></g>
<g><path style="opacity:0.204" fill="#a7a7a7" d="M 738.5,245.5 C 739.79,246.058 740.623,247.058 741,248.5C 751.611,276.946 758.445,306.279 761.5,336.5C 760.833,335.5 760.167,334.5 759.5,333.5C 755.663,303.483 748.663,274.15 738.5,245.5 Z"/></g>
<g><path style="opacity:0.208" fill="#c3c3c3" d="M 121.5,298.5 C 119.392,303.262 118.059,308.262 117.5,313.5C 304.834,313.667 492.167,313.5 679.5,313C 680.171,312.014 680.171,310.847 679.5,309.5C 680.167,309.167 680.833,308.833 681.5,308.5C 681.557,309.609 681.89,310.609 682.5,311.5C 682.5,312.5 682.5,313.5 682.5,314.5C 493.5,314.5 304.5,314.5 115.5,314.5C 115.712,309.322 116.712,304.322 118.5,299.5C 119.391,298.89 120.391,298.557 121.5,298.5 Z"/></g>
<g><path style="opacity:0.506" fill="#484848" d="M 682.5,311.5 C 683.434,312.568 683.768,313.901 683.5,315.5C 493.999,315.833 304.666,315.5 115.5,314.5C 304.5,314.5 493.5,314.5 682.5,314.5C 682.5,313.5 682.5,312.5 682.5,311.5 Z"/></g>
<g><path style="opacity:0.078" fill="#e0e0e0" d="M 40.5,310.5 C 40.1324,316.221 39.4657,321.888 38.5,327.5C 37.8333,326.833 37.1667,326.167 36.5,325.5C 37.8761,320.394 39.2094,315.394 40.5,310.5 Z"/></g>
<g><path style="opacity:0.041" fill="#b0b0b0" d="M 36.5,325.5 C 37.1667,326.167 37.8333,326.833 38.5,327.5C 37.2583,334.436 36.5916,341.436 36.5,348.5C 35.8333,348.833 35.1667,349.167 34.5,349.5C 34.8371,341.471 35.5038,333.471 36.5,325.5 Z"/></g>
<g><path style="opacity:0.065" fill="#f4f4f4" d="M 762.5,352.5 C 763.268,353.263 763.768,354.263 764,355.5C 764.499,361.157 764.666,366.824 764.5,372.5C 762.734,366.091 762.068,359.424 762.5,352.5 Z"/></g>
<g><path style="opacity:0.02" fill="#b8b8b8" d="M 34.5,351.5 C 35.493,359.984 35.8264,368.651 35.5,377.5C 35.5,377.833 35.5,378.167 35.5,378.5C 34.8826,378.389 34.3826,378.056 34,377.5C 33.1764,368.657 33.3431,359.99 34.5,351.5 Z"/></g>
<g><path style="opacity:0.563" fill="#3c3c3c" d="M 36.5,348.5 C 36.8271,358.348 36.4938,368.014 35.5,377.5C 35.8264,368.651 35.493,359.984 34.5,351.5C 34.5,350.833 34.5,350.167 34.5,349.5C 35.1667,349.167 35.8333,348.833 36.5,348.5 Z"/></g>
<g><path style="opacity:0.522" fill="#666666" d="M 759.5,333.5 C 760.167,334.5 760.833,335.5 761.5,336.5C 762.275,341.797 762.608,347.13 762.5,352.5C 762.068,359.424 762.734,366.091 764.5,372.5C 764.795,374.735 764.461,376.735 763.5,378.5C 761.554,363.606 760.221,348.606 759.5,333.5 Z"/></g>
<g><path style="opacity:0.109" fill="#cfcfcf" d="M 762.5,379.5 C 520.5,380.833 278.5,380.833 36.5,379.5C 278.5,378.167 520.5,378.167 762.5,379.5 Z"/></g>
<g><path style="opacity:0.29" fill="#d4d4d4" d="M 762.5,430.5 C 520.5,431.833 278.5,431.833 36.5,430.5C 278.5,429.167 520.5,429.167 762.5,430.5 Z"/></g>
<g><path style="opacity:0.572" fill="#545454" d="M 36.5,430.5 C 278.5,431.833 520.5,431.833 762.5,430.5C 763.167,430.5 763.5,430.833 763.5,431.5C 763.5,452.5 763.5,473.5 763.5,494.5C 762.503,474.007 762.169,453.34 762.5,432.5C 520.5,432.5 278.5,432.5 36.5,432.5C 36.1667,432.5 35.8333,432.5 35.5,432.5C 35.1667,432.5 34.8333,432.5 34.5,432.5C 34.8333,431.5 35.5,430.833 36.5,430.5 Z"/></g>
<g><path style="opacity:0.288" fill="#bdbdbd" d="M 34.5,432.5 C 34.8333,432.5 35.1667,432.5 35.5,432.5C 35.8305,453.34 35.4972,474.007 34.5,494.5C 33.1667,473.833 33.1667,453.167 34.5,432.5 Z"/></g>
<g><path style="opacity:0.993" fill="#000000" d="M 36.5,432.5 C 278.5,432.5 520.5,432.5 762.5,432.5C 762.169,453.34 762.503,474.007 763.5,494.5C 763.5,494.833 763.5,495.167 763.5,495.5C 762.833,495.5 762.167,495.5 761.5,495.5C 520.001,494.5 278.334,494.167 36.5,494.5C 36.5,473.833 36.5,453.167 36.5,432.5 Z"/></g>
<g><path style="opacity:0.231" fill="#e3e3e3" d="M 763.5,431.5 C 764.268,432.263 764.768,433.263 765,434.5C 765.667,453.833 765.667,473.167 765,492.5C 764.768,493.737 764.268,494.737 763.5,495.5C 763.5,495.167 763.5,494.833 763.5,494.5C 763.5,473.5 763.5,452.5 763.5,431.5 Z"/></g>
<g><path style="opacity:0.569" fill="#242424" d="M 35.5,432.5 C 35.8333,432.5 36.1667,432.5 36.5,432.5C 36.5,453.167 36.5,473.833 36.5,494.5C 278.334,494.167 520.001,494.5 761.5,495.5C 519.666,495.167 277.999,495.5 36.5,496.5C 35.5,496.167 34.8333,495.5 34.5,494.5C 35.4972,474.007 35.8305,453.34 35.5,432.5 Z"/></g>
<g><path style="opacity:0.274" fill="#b6b6b6" d="M 761.5,495.5 C 762.167,495.5 762.833,495.5 763.5,495.5C 763.389,496.117 763.056,496.617 762.5,497C 520.333,497.833 278.333,497.666 36.5,496.5C 277.999,495.5 519.666,495.167 761.5,495.5 Z"/></g>
<g><path style="opacity:0.329" fill="#797979" d="M 669.5,553.5 C 668.503,573.66 668.17,593.993 668.5,614.5C 668.167,614.5 667.833,614.5 667.5,614.5C 667.5,593.833 667.5,573.167 667.5,552.5C 486.5,552.5 305.5,552.5 124.5,552.5C 124.167,552.5 123.833,552.5 123.5,552.5C 123.611,551.883 123.944,551.383 124.5,551C 305.5,550.333 486.5,550.333 667.5,551C 668.381,551.708 669.047,552.542 669.5,553.5 Z"/></g>
<g><path style="opacity:0.99" fill="#000000" d="M 124.5,552.5 C 305.5,552.5 486.5,552.5 667.5,552.5C 667.5,573.167 667.5,593.833 667.5,614.5C 486.5,614.5 305.5,614.5 124.5,614.5C 124.5,593.833 124.5,573.167 124.5,552.5 Z"/></g>
<g><path style="opacity:0.02" fill="#b7b7b7" d="M 669.5,553.5 C 670.833,573.833 670.833,594.167 669.5,614.5C 669.167,614.5 668.833,614.5 668.5,614.5C 668.17,593.993 668.503,573.66 669.5,553.5 Z"/></g>
<g><path style="opacity:1" fill="#fefffe" d="M -0.5,613.5 C 10.1667,614.167 10.1667,614.833 -0.5,615.5C -0.5,614.833 -0.5,614.167 -0.5,613.5 Z"/></g>
<g><path style="opacity:0.521" fill="#363636" d="M 123.5,552.5 C 123.833,552.5 124.167,552.5 124.5,552.5C 124.5,573.167 124.5,593.833 124.5,614.5C 305.5,614.5 486.5,614.5 667.5,614.5C 667.833,614.5 668.167,614.5 668.5,614.5C 668.833,614.5 669.167,614.5 669.5,614.5C 668.653,615.966 667.32,616.8 665.5,617C 486.167,617.667 306.833,617.667 127.5,617C 125.671,616.727 124.171,615.893 123,614.5C 122.171,593.663 122.337,572.996 123.5,552.5 Z"/></g>
<g><path style="opacity:0.047" fill="#c7c7c7" d="M 583.5,673.5 C 463.334,674.5 343.001,674.833 222.5,674.5C 222.167,674.5 221.833,674.5 221.5,674.5C 221.5,674.167 221.5,673.833 221.5,673.5C 342.167,672.167 462.833,672.167 583.5,673.5 Z"/></g>
<g><path style="opacity:0.623" fill="#262626" d="M 583.5,673.5 C 584.167,673.5 584.5,673.833 584.5,674.5C 584.5,675.167 584.167,675.5 583.5,675.5C 462.999,675.833 342.666,675.5 222.5,674.5C 343.001,674.833 463.334,674.5 583.5,673.5 Z"/></g>
<g><path style="opacity:0.988" fill="#060606" d="M 221.5,674.5 C 221.833,674.5 222.167,674.5 222.5,674.5C 342.666,675.5 462.999,675.833 583.5,675.5C 583.169,696.34 583.503,717.007 584.5,737.5C 584.389,738.117 584.056,738.617 583.5,739C 462.833,739.667 342.167,739.667 221.5,739C 220.944,738.617 220.611,738.117 220.5,737.5C 221.497,716.673 221.831,695.673 221.5,674.5 Z"/></g>
<g><path style="opacity:0.125" fill="#989898" d="M 221.5,673.5 C 221.5,673.833 221.5,674.167 221.5,674.5C 221.831,695.673 221.497,716.673 220.5,737.5C 219.337,716.671 219.171,695.671 220,674.5C 220.383,673.944 220.883,673.611 221.5,673.5 Z"/></g>
<g><path style="opacity:0.47" fill="#636363" d="M 584.5,674.5 C 585.833,695.5 585.833,716.5 584.5,737.5C 583.503,717.007 583.169,696.34 583.5,675.5C 584.167,675.5 584.5,675.167 584.5,674.5 Z"/></g>
</svg>
